<svg width="155" height="58" viewBox="0 0 155 58" fill="none" xmlns="http://www.w3.org/2000/svg">
<g clip-path="url(#clip0)">
<path d="M29 58C45.0163 58 58 45.0163 58 29C58 12.9837 45.0163 0 29 0C12.9837 0 0 12.9837 0 29C0 45.0163 12.9837 58 29 58Z" fill="#2D404E"/>
<path d="M58 29C58 23.1815 56.2868 17.7635 53.3368 13.2227C53.3368 13.2227 51.6824 15.6395 51.9933 17.1929C52.3039 18.7466 54.1292 18.8652 53.9417 20.0048C53.7542 21.1444 52.4078 19.6787 50.7504 22.682C49.0931 25.6855 49.9221 29.8296 52.3039 30.1397C54.6859 30.4497 58 29 58 29Z" fill="#48B19B"/>
<path d="M36.6159 1.01047C39.9913 1.92669 43.1221 3.4374 45.8887 5.42288C45.8887 5.42288 42.5261 4.86826 41.2523 6.00719C39.9785 7.14646 38.1208 9.83972 36.6158 6.00719C35.1109 2.17488 36.6159 1.01047 36.6159 1.01047Z" fill="#48B19B"/>
<path d="M7.19553 9.88028C12.5105 3.8237 20.3085 0 29 0C29 0 27.0325 1.19127 30.7611 3.21084C34.4897 5.23065 32.7807 6.16261 32.0039 6.78407C31.2272 7.40554 29.88 5.54127 29 4.29857C28.1199 3.05554 24.3405 1.13972 21.4403 2.17568C18.5402 3.21164 16.055 3.97685 16.469 4.94065C16.8828 5.90422 21.8542 4.04063 23.7185 4.14371C25.5828 4.24703 24.9613 5.38607 23.2009 6.73264C21.4403 8.07922 21.2328 9.73618 23.0972 10.7718C24.9613 11.8079 27.2394 11.9115 27.7579 11.2902C28.276 10.6687 26.8257 6.62945 30.3473 8.38995C33.8688 10.1505 36.769 11.187 33.8688 13.7759C30.9686 16.3646 27.6546 19.2656 27.5508 20.9221C27.447 22.5789 28.5869 23.9264 27.9654 24.0294C27.344 24.1325 26.7736 23.3564 26.3595 22.7864C25.9457 22.2167 24.0292 22.0099 23.0972 22.372C22.165 22.7342 20.404 24.1325 21.3882 25.4791C22.3725 26.8259 23.7178 26.2037 25.0646 26.8252C26.4112 27.4467 27.6669 29.8119 27.4091 30.3465C27.1513 30.8808 26.0034 30.2042 25.0646 28.3789C24.1256 26.5534 22.3646 27.7574 21.1255 27.4467C19.8863 27.1361 18.9541 26.929 17.7112 24.7539C16.4683 22.579 13.8951 21.9703 12.8436 20.7147C9.83158 17.118 10.047 14.3969 9.42569 13.1541C8.80423 11.911 7.19553 9.88028 7.19553 9.88028Z" fill="#48B19B"/>
<path d="M31.7963 29.4144C31.7963 29.4144 34.9035 29.7245 36.4571 31.0713C38.0106 32.4179 38.2181 32.9361 40.6001 33.4538C42.9821 33.9712 44.018 35.3174 42.4644 37.907C40.9108 40.4962 38.1139 44.6393 36.7678 45.8822C35.4218 47.1252 33.7645 48.1608 33.143 50.2322C32.5217 52.3033 32.3141 53.5454 33.6607 54.3746C33.6607 54.3746 32.9362 56.1356 31.2789 53.8569C29.6214 51.5781 30.968 48.8856 31.2789 47.332C31.5895 45.7785 32.4179 41.1183 31.9001 39.9784C31.3826 38.8389 29 38.1137 28.3785 35.732C27.7571 33.3501 28.8447 28.7149 31.7963 29.4144Z" fill="#48B19B"/>
<path opacity="0.6" d="M8.49384 8.49416C19.8191 -2.83136 38.1805 -2.83113 49.506 8.49416C60.8314 19.8192 60.8314 38.1809 49.5061 49.5062C49.5061 49.5062 62.6635 32.1073 44.0354 13.4792C25.4072 -5.14898 8.49384 8.49416 8.49384 8.49416Z" fill="#253744"/>
</g>
<path d="M73.04 20.22V27.39H80.66V29.49H73.04V36.84H81.56V39H70.31V18.06H81.56V20.22H73.04ZM84.6709 28.53C84.6709 26.49 85.1309 24.66 86.0509 23.04C86.9709 21.4 88.2209 20.12 89.8009 19.2C91.4009 18.28 93.1709 17.82 95.1109 17.82C97.3909 17.82 99.3809 18.37 101.081 19.47C102.781 20.57 104.021 22.13 104.801 24.15H101.531C100.951 22.93 100.111 21.99 99.0109 21.33C97.9309 20.65 96.6309 20.31 95.1109 20.31C93.6509 20.31 92.3409 20.65 91.1809 21.33C90.0209 21.99 89.1109 22.95 88.4509 24.21C87.7909 25.45 87.4609 26.89 87.4609 28.53C87.4609 30.17 87.7909 31.61 88.4509 32.85C89.1109 34.09 90.0209 35.05 91.1809 35.73C92.3409 36.39 93.6509 36.72 95.1109 36.72C96.6309 36.72 97.9309 36.39 99.0109 35.73C100.111 35.07 100.951 34.13 101.531 32.91H104.801C104.021 34.91 102.781 36.46 101.081 37.56C99.3809 38.64 97.3909 39.18 95.1109 39.18C93.1709 39.18 91.4009 38.73 89.8009 37.83C88.2209 36.91 86.9709 35.64 86.0509 34.02C85.1309 32.4 84.6709 30.57 84.6709 28.53ZM153.455 18.09L147.395 39H144.335L139.475 22.17L134.465 39L131.405 39.03L125.555 18.09H128.465L133.025 35.79L138.065 18.09H141.155L145.925 35.76L150.515 18.09H153.455Z" fill="black"/>
<path d="M110.275 19.89C109.755 19.89 109.315 19.71 108.955 19.35C108.595 18.99 108.415 18.55 108.415 18.03C108.415 17.51 108.595 17.07 108.955 16.71C109.315 16.35 109.755 16.17 110.275 16.17C110.775 16.17 111.195 16.35 111.535 16.71C111.895 17.07 112.075 17.51 112.075 18.03C112.075 18.55 111.895 18.99 111.535 19.35C111.195 19.71 110.775 19.89 110.275 19.89ZM111.595 22.56V39H108.865V22.56H111.595ZM119.578 24.81V34.5C119.578 35.3 119.748 35.87 120.088 36.21C120.428 36.53 121.018 36.69 121.857 36.69H123.868V39H121.408C119.888 39 118.748 38.65 117.988 37.95C117.228 37.25 116.848 36.1 116.848 34.5V24.81H114.718V22.56H116.848V18.42H119.578V22.56H123.868V24.81H119.578Z" fill="black" fill-opacity="0.2"/>
<defs>
<clipPath id="clip0">
<rect width="58" height="58" fill="white"/>
</clipPath>
</defs>
</svg>
